<?xml version="1.0" encoding="utf-8"?>
<!-- Generator: Adobe Illustrator 21.0.0, SVG Export Plug-In . SVG Version: 6.00 Build 0)  -->
<svg version="1.1" id="Layer_1" xmlns="http://www.w3.org/2000/svg" xmlns:xlink="http://www.w3.org/1999/xlink" x="0px" y="0px"
	 viewBox="0 0 512 512" style="enable-background:new 0 0 512 512;" xml:space="preserve">
<style type="text/css">
	.st0{fill:#A3E1FF;}
	.st1{fill:#4AAEE2;}
</style>
<path class="st0" d="M455.1,54.9c42.5,42.5,42.5,111.3,0,153.8l-89.6,89.6c-12.1,12.1-26.2,20.7-41.4,25.9c-23,7.9-48.1,7.9-71.1,0
	c-15.1-5.2-29.3-13.8-41.4-25.9c-12.1-12.1-20.7-26.2-25.9-41.4l1.9-1.9c-1.9,1.9,33.6-34.3,33.6-34.3L255,255
	c18.5,18.5,48.7,18.5,67.3,0l1.9-1.9l87.7-87.7c18.5-18.5,18.5-48.7,0-67.3c-18.5-18.5-48.7-18.5-67.3,0l-87.7,87.7l-35.5,14.5
	l-35.5-14.5c5.2-15.1,13.8-29.3,25.9-41.4l89.6-89.6C343.8,12.4,412.7,12.4,455.1,54.9z"/>
<path class="st1" d="M256.9,185.8c15.1,5.2,29.3,13.8,41.4,25.9c12.1,12.1,20.7,26.2,25.9,41.4l-1.9,1.9
	c-18.6,18.5-48.7,18.5-67.3,0c-18.6-18.5-48.7-18.5-67.3,0l-1.9,1.9l-87.7,87.7c-18.6,18.5-18.6,48.7,0,67.3
	c18.5,18.5,48.7,18.5,67.3,0l87.7-87.7c23,7.9,48.1,7.9,71.1,0c-5.2,15.1-13.8,29.3-25.9,41.4l-89.6,89.6
	c-42.5,42.5-111.3,42.5-153.8,0c-42.5-42.5-42.5-111.3,0-153.8l89.6-89.6c12.1-12.1,26.2-20.7,41.4-25.9
	C208.8,177.9,233.9,177.9,256.9,185.8z"/>
</svg>
