<?xml version="1.0" encoding="utf-8"?>
<!-- Generator: Adobe Illustrator 21.0.0, SVG Export Plug-In . SVG Version: 6.00 Build 0)  -->
<svg version="1.1" id="Layer_1" xmlns="http://www.w3.org/2000/svg" xmlns:xlink="http://www.w3.org/1999/xlink" x="0px" y="0px"
	 viewBox="0 0 16 16" style="enable-background:new 0 0 16 16;" xml:space="preserve">
<style type="text/css">
	.st0{fill:#009ADF;}
</style>
<g>
	<path class="st0" d="M11.2,7.8c-0.2,0-0.4,0.1-0.4,0.4v3.5c0,0.4-0.4,0.8-0.8,0.8H3.5c-0.5,0-0.8-0.4-0.8-0.8V5.3
		c0-0.5,0.4-0.8,0.8-0.8h3.5c0.2,0,0.4-0.1,0.4-0.4c0-0.2-0.2-0.4-0.4-0.4H3.5C2.7,3.8,2,4.5,2,5.3v6.5c0,0.8,0.7,1.5,1.5,1.5H10
		c0.8,0,1.5-0.7,1.5-1.5V8.2C11.5,8.1,11.4,7.8,11.2,7.8z"/>
	<path class="st0" d="M9.4,2C9.2,2,9,2.1,9,2.4s0.1,0.4,0.4,0.4h2.7L6.2,8.5C6.1,8.7,6.1,8.9,6.2,9c0.1,0.1,0.1,0.1,0.3,0.1
		c0.1,0,0.2,0,0.3-0.1l5.8-5.8v2.7c0,0.2,0.1,0.4,0.4,0.4s0.4-0.1,0.4-0.4V2H9.4z"/>
</g>
</svg>
